<svg width="811" height="154" viewBox="0 0 811 154" fill="none" xmlns="http://www.w3.org/2000/svg">
<rect width="154" height="154" rx="16.9661" fill="#FB554C"/>
<path fill-rule="evenodd" clip-rule="evenodd" d="M135.729 43.0683C135.729 52.4384 128.133 60.0344 118.763 60.0344C109.393 60.0344 101.797 52.4384 101.797 43.0683C101.797 33.6982 109.393 26.1022 118.763 26.1022C128.133 26.1022 135.729 33.6982 135.729 43.0683ZM105.124 81.2751C105.124 104.538 86.2661 123.396 63.0032 123.396C39.7402 123.396 20.8818 104.538 20.8818 81.2751C20.8818 58.0121 39.7402 39.1537 63.0032 39.1537C86.2661 39.1537 105.124 58.0121 105.124 81.2751ZM114.849 127.899C119.173 127.899 122.679 124.394 122.679 120.069C122.679 115.744 119.173 112.238 114.849 112.238C110.524 112.238 107.018 115.744 107.018 120.069C107.018 124.394 110.524 127.899 114.849 127.899Z" fill="white"/>
<path d="M606.015 110.525C605.204 110.525 604.434 110.403 603.704 110.16C602.975 109.917 602.285 109.39 601.637 108.579L580.357 83.0435L575.98 78.666L554.822 53.6168C553.768 52.3197 553.2 50.9416 553.119 49.4824C553.038 47.9422 553.444 46.6451 554.335 45.5913C555.227 44.5374 556.565 44.0105 558.348 44.0105C560.294 44.0105 561.834 44.6996 562.969 46.0777L583.762 70.8837L586.924 73.8021L609.784 101.162C611 102.621 611.567 104.08 611.486 105.539C611.486 106.917 610.96 108.093 609.906 109.066C608.933 110.038 607.636 110.525 606.015 110.525ZM559.564 110.525C557.943 110.525 556.646 110.038 555.673 109.066C554.781 108.012 554.335 106.755 554.335 105.296C554.335 103.837 554.903 102.378 556.038 100.918L576.709 75.0181L583.276 84.2595L563.942 108.579C562.726 109.876 561.266 110.525 559.564 110.525ZM589.599 79.274L581.208 72.0997L600.786 46.0777C601.434 45.267 602.123 44.7401 602.853 44.4969C603.583 44.1726 604.393 44.0105 605.285 44.0105C607.068 44.0105 608.406 44.578 609.298 45.7129C610.189 46.7667 610.595 48.0638 610.514 49.604C610.514 51.1443 609.946 52.644 608.811 54.1032L589.599 79.274Z" fill="#FB554C"/>
<path d="M517.986 111.012C511.258 111.012 505.259 109.593 499.99 106.756C494.802 103.838 490.708 99.8655 487.708 94.8395C484.79 89.7324 483.331 83.8956 483.331 77.3293C483.331 70.682 484.709 64.8452 487.465 59.8192C490.302 54.7121 494.194 50.7399 499.139 47.9026C504.084 44.9842 509.758 43.525 516.162 43.525C522.485 43.525 527.917 44.9437 532.457 47.781C536.996 50.5372 540.441 54.3878 542.792 59.3328C545.224 64.1967 546.44 69.8308 546.44 76.235C546.44 77.7752 545.913 79.0722 544.86 80.1261C543.806 81.0989 542.468 81.5853 540.847 81.5853H491.843V71.8574H540.482L535.496 75.2622C535.415 71.2089 534.605 67.6015 533.064 64.4399C531.524 61.1973 529.335 58.6437 526.498 56.7792C523.661 54.9147 520.216 53.9825 516.162 53.9825C511.542 53.9825 507.569 54.9958 504.246 57.0224C501.003 59.0491 498.531 61.8458 496.828 65.4127C495.126 68.8985 494.275 72.8707 494.275 77.3293C494.275 81.7879 495.288 85.7601 497.315 89.246C499.341 92.7318 502.138 95.488 505.705 97.5146C509.272 99.5413 513.366 100.555 517.986 100.555C520.499 100.555 523.053 100.109 525.647 99.217C528.322 98.2442 530.47 97.1498 532.092 95.9339C533.308 95.0421 534.605 94.5963 535.983 94.5963C537.442 94.5152 538.699 94.9205 539.752 95.8123C541.131 97.0283 541.86 98.3658 541.941 99.825C542.022 101.284 541.374 102.541 539.996 103.595C537.239 105.783 533.794 107.567 529.66 108.945C525.606 110.323 521.715 111.012 517.986 111.012Z" fill="#FB554C"/>
<path d="M466.64 110.647C464.857 110.647 463.357 110.079 462.141 108.944C461.006 107.728 460.439 106.229 460.439 104.445V74.532C460.439 69.9113 459.588 66.1417 457.885 63.2233C456.183 60.305 453.872 58.1568 450.954 56.7786C448.117 55.3195 444.834 54.5899 441.105 54.5899C437.7 54.5899 434.619 55.2789 431.863 56.657C429.107 58.0352 426.918 59.8997 425.297 62.2506C423.676 64.5204 422.865 67.155 422.865 70.1544H415.204C415.204 65.0473 416.42 60.5077 418.852 56.5354C421.365 52.4822 424.77 49.2801 429.066 46.9292C433.363 44.5783 438.186 43.4028 443.537 43.4028C449.13 43.4028 454.116 44.6188 458.493 47.0508C462.952 49.4017 466.438 52.8875 468.951 57.5082C471.545 62.129 472.842 67.8036 472.842 74.532V104.445C472.842 106.229 472.234 107.728 471.018 108.944C469.883 110.079 468.424 110.647 466.64 110.647ZM416.663 110.647C414.88 110.647 413.38 110.079 412.164 108.944C411.029 107.728 410.462 106.229 410.462 104.445V50.2123C410.462 48.3478 411.029 46.8481 412.164 45.7132C413.38 44.5783 414.88 44.0108 416.663 44.0108C418.528 44.0108 420.028 44.5783 421.163 45.7132C422.297 46.8481 422.865 48.3478 422.865 50.2123V104.445C422.865 106.229 422.297 107.728 421.163 108.944C420.028 110.079 418.528 110.647 416.663 110.647Z" fill="#FB554C"/>
<path d="M392.266 110.647C390.483 110.647 388.983 110.079 387.767 108.944C386.632 107.728 386.065 106.229 386.065 104.445V74.532C386.065 69.9113 385.214 66.1417 383.511 63.2233C381.809 60.305 379.498 58.1568 376.58 56.7786C373.743 55.3195 370.46 54.5899 366.731 54.5899C363.326 54.5899 360.245 55.2789 357.489 56.657C354.733 58.0352 352.544 59.8997 350.923 62.2506C349.302 64.5204 348.491 67.155 348.491 70.1544H340.83C340.83 65.0473 342.046 60.5077 344.478 56.5354C346.991 52.4822 350.396 49.2801 354.692 46.9292C358.989 44.5783 363.812 43.4028 369.163 43.4028C374.756 43.4028 379.742 44.6188 384.119 47.0508C388.578 49.4017 392.064 52.8875 394.577 57.5082C397.171 62.129 398.468 67.8036 398.468 74.532V104.445C398.468 106.229 397.86 107.728 396.644 108.944C395.509 110.079 394.05 110.647 392.266 110.647ZM342.289 110.647C340.506 110.647 339.006 110.079 337.79 108.944C336.655 107.728 336.088 106.229 336.088 104.445V50.2123C336.088 48.3478 336.655 46.8481 337.79 45.7132C339.006 44.5783 340.506 44.0108 342.289 44.0108C344.154 44.0108 345.654 44.5783 346.789 45.7132C347.923 46.8481 348.491 48.3478 348.491 50.2123V104.445C348.491 106.229 347.923 107.728 346.789 108.944C345.654 110.079 344.154 110.647 342.289 110.647Z" fill="#FB554C"/>
<path d="M292.426 111.012C285.86 111.012 280.064 109.593 275.038 106.756C270.012 103.838 266.04 99.8655 263.121 94.8395C260.284 89.7324 258.865 83.8956 258.865 77.3293C258.865 70.682 260.284 64.8452 263.121 59.8192C266.04 54.7121 270.012 50.7399 275.038 47.9026C280.064 44.9842 285.86 43.525 292.426 43.525C298.912 43.525 304.667 44.9842 309.693 47.9026C314.719 50.7399 318.651 54.7121 321.488 59.8192C324.407 64.8452 325.866 70.682 325.866 77.3293C325.866 83.8956 324.447 89.7324 321.61 94.8395C318.773 99.8655 314.841 103.838 309.815 106.756C304.789 109.593 298.993 111.012 292.426 111.012ZM292.426 100.068C296.642 100.068 300.371 99.0954 303.613 97.1498C306.856 95.2043 309.369 92.5291 311.152 89.1244C313.017 85.7196 313.949 81.7879 313.949 77.3293C313.949 72.8707 313.017 68.9391 311.152 65.5343C309.369 62.0485 306.856 59.3328 303.613 57.3872C300.371 55.4417 296.642 54.4689 292.426 54.4689C288.211 54.4689 284.482 55.4417 281.239 57.3872C277.997 59.3328 275.443 62.0485 273.579 65.5343C271.714 68.9391 270.782 72.8707 270.782 77.3293C270.782 81.7879 271.714 85.7196 273.579 89.1244C275.443 92.5291 277.997 95.2043 281.239 97.1498C284.482 99.0954 288.211 100.068 292.426 100.068Z" fill="#FB554C"/>
<path d="M228.561 111.012C222.076 111.012 216.28 109.553 211.173 106.635C206.147 103.635 202.174 99.6223 199.256 94.5963C196.419 89.4892 195 83.7335 195 77.3293C195 70.763 196.419 64.9263 199.256 59.8192C202.093 54.7121 205.984 50.7399 210.929 47.9026C215.874 44.9842 221.549 43.525 227.953 43.525C232.736 43.525 237.114 44.4573 241.086 46.3218C245.058 48.1052 248.625 50.8209 251.786 54.4689C252.921 55.7659 253.327 57.1035 253.002 58.4816C252.678 59.8597 251.786 61.0757 250.327 62.1296C249.192 62.9402 247.936 63.2239 246.558 62.9807C245.18 62.6565 243.923 61.9269 242.788 60.792C238.816 56.5766 233.871 54.4689 227.953 54.4689C223.819 54.4689 220.171 55.4417 217.009 57.3872C213.848 59.2517 211.375 61.8864 209.592 65.2911C207.808 68.6959 206.917 72.7086 206.917 77.3293C206.917 81.7069 207.808 85.598 209.592 89.0028C211.456 92.4075 214.01 95.1232 217.252 97.1498C220.495 99.0954 224.265 100.068 228.561 100.068C231.398 100.068 233.871 99.7439 235.979 99.0954C238.167 98.3658 240.153 97.2714 241.937 95.8123C243.234 94.7584 244.572 94.191 245.95 94.1099C247.328 93.9478 248.544 94.3126 249.598 95.2043C250.976 96.3392 251.746 97.6362 251.908 99.0954C252.07 100.474 251.584 101.73 250.449 102.865C244.612 108.296 237.316 111.012 228.561 111.012Z" fill="#FB554C"/>
<path d="M712.791 110.016C711.253 110.016 709.878 109.449 708.664 108.316C707.45 107.183 706.843 105.686 706.843 103.825V43.9776C706.843 38.1507 707.976 33.0927 710.242 28.8034C712.589 24.5142 715.826 21.1961 719.953 18.8492C724.081 16.4213 728.856 15.2074 734.278 15.2074C736.058 15.2074 737.515 15.7334 738.648 16.7855C739.862 17.8376 740.469 19.1729 740.469 20.7915C740.469 22.3291 739.862 23.6645 738.648 24.7975C737.515 25.8495 736.058 26.3756 734.278 26.3756C731.283 26.3756 728.653 27.0635 726.387 28.4393C724.121 29.8151 722.341 31.7169 721.046 34.1448C719.832 36.5726 719.225 39.4456 719.225 42.7637V103.825C719.225 105.686 718.659 107.183 717.526 108.316C716.393 109.449 714.814 110.016 712.791 110.016ZM701.623 56.4811C699.923 56.4811 698.548 55.9955 697.496 55.0244C696.444 54.0533 695.917 52.8393 695.917 51.3826C695.917 49.764 696.444 48.4692 697.496 47.498C698.548 46.5269 699.923 46.0413 701.623 46.0413H731.607C733.307 46.0413 734.682 46.5269 735.734 47.498C736.787 48.4692 737.313 49.764 737.313 51.3826C737.313 52.8393 736.787 54.0533 735.734 55.0244C734.682 55.9955 733.307 56.4811 731.607 56.4811H701.623Z" fill="#FB554C"/>
<path d="M767.633 138.792C766.823 138.792 765.852 138.55 764.719 138.064C761.158 136.446 760.187 133.896 761.806 130.416L798.831 46.7764C800.449 43.3774 802.998 42.4062 806.478 43.8629C810.12 45.4006 811.132 47.9498 809.513 51.5107L772.367 135.029C771.396 137.538 769.818 138.792 767.633 138.792ZM781.957 106.987C780.419 107.635 778.963 107.716 777.587 107.23C776.292 106.664 775.24 105.612 774.431 104.074L746.632 51.2679C745.822 49.7303 745.701 48.2735 746.267 46.8978C746.915 45.441 748.007 44.389 749.545 43.7415C751.083 43.0941 752.539 43.0536 753.915 43.6201C755.291 44.1057 756.343 45.1173 757.071 46.655L783.657 99.4611C784.466 100.999 784.749 102.496 784.506 103.953C784.344 105.328 783.495 106.34 781.957 106.987Z" fill="#FB554C"/>
<path d="M677.929 110.437C676.149 110.437 674.652 109.871 673.438 108.738C672.305 107.524 671.738 106.027 671.738 104.246V50.2264C671.738 48.365 672.305 46.8678 673.438 45.7348C674.652 44.6018 676.149 44.0353 677.929 44.0353C679.791 44.0353 681.288 44.6018 682.421 45.7348C683.554 46.8678 684.12 48.365 684.12 50.2264V104.246C684.12 106.027 683.554 107.524 682.421 108.738C681.288 109.871 679.791 110.437 677.929 110.437ZM677.929 33.2313C675.744 33.2313 673.843 32.4625 672.224 30.9248C670.686 29.3063 669.917 27.4044 669.917 25.2194C669.917 23.0343 670.686 21.1729 672.224 19.6353C673.843 18.0167 675.744 17.2074 677.929 17.2074C680.114 17.2074 681.976 18.0167 683.514 19.6353C685.132 21.1729 685.941 23.0343 685.941 25.2194C685.941 27.4044 685.132 29.3063 683.514 30.9248C681.976 32.4625 680.114 33.2313 677.929 33.2313Z" fill="#FB554C"/>
<path d="M649.572 109.732C645.526 109.732 641.884 108.72 638.647 106.697C635.41 104.593 632.86 101.76 630.999 98.1996C629.138 94.6387 628.207 90.6328 628.207 86.1817V28.2771C628.207 26.4966 628.774 25.0399 629.907 23.9069C631.04 22.7739 632.496 22.2074 634.277 22.2074C636.057 22.2074 637.514 22.7739 638.647 23.9069C639.78 25.0399 640.346 26.4966 640.346 28.2771V86.1817C640.346 89.4188 641.237 92.1299 643.017 94.315C644.797 96.5001 646.983 97.5926 649.572 97.5926H653.7C655.156 97.5926 656.37 98.1591 657.341 99.2921C658.394 100.425 658.92 101.882 658.92 103.662C658.92 105.443 658.232 106.899 656.856 108.032C655.561 109.165 653.861 109.732 651.757 109.732H649.572ZM622.623 56.1975C620.923 56.1975 619.548 55.7119 618.496 54.7408C617.444 53.7697 616.917 52.5557 616.917 51.099C616.917 49.4804 617.444 48.1856 618.496 47.2144C619.548 46.2433 620.923 45.7577 622.623 45.7577H650.665C652.364 45.7577 653.74 46.2433 654.792 47.2144C655.844 48.1856 656.37 49.4804 656.37 51.099C656.37 52.5557 655.844 53.7697 654.792 54.7408C653.74 55.7119 652.364 56.1975 650.665 56.1975H622.623Z" fill="#FB554C"/>
</svg>
